<svg width="900" height="620" viewBox="0 0 900 620" fill="none" xmlns="http://www.w3.org/2000/svg">
  <rect width="900" height="620" fill="#0A0A0F"/>
  <g filter="url(#glowPurple)">
    <ellipse cx="420" cy="330" rx="260" ry="180" fill="#8B5CF6" fill-opacity="0.35"/>
  </g>
  <g filter="url(#glowCyan)">
    <ellipse cx="600" cy="290" rx="120" ry="80" fill="#22D3EE" fill-opacity="0.25"/>
  </g>
  <rect x="170" y="270" width="500" height="180" rx="24" fill="#1B1840" stroke="#8B5CF6" stroke-width="10"/>
  <rect x="170" y="220" width="500" height="120" rx="60" fill="#26225D" stroke="#22D3EE" stroke-width="8"/>
  <rect x="380" y="215" width="80" height="240" rx="18" fill="#0F1020" stroke="#8B5CF6" stroke-width="8"/>
  <circle cx="420" cy="330" r="34" fill="#22D3EE" stroke="#C4B5FD" stroke-width="8"/>
  <path d="M392 330H448" stroke="#0A0A0F" stroke-width="10" stroke-linecap="round"/>
  <rect x="210" y="300" width="95" height="20" rx="8" fill="#8B5CF6"/>
  <rect x="535" y="300" width="95" height="20" rx="8" fill="#8B5CF6"/>
  <rect x="220" y="360" width="80" height="14" rx="7" fill="#22D3EE"/>
  <rect x="545" y="360" width="80" height="14" rx="7" fill="#22D3EE"/>
  <defs>
    <filter id="glowPurple" x="0" y="0" width="840" height="620" filterUnits="userSpaceOnUse" color-interpolation-filters="sRGB">
      <feFlood flood-opacity="0" result="BackgroundImageFix"/>
      <feBlend mode="normal" in="SourceGraphic" in2="BackgroundImageFix" result="shape"/>
      <feGaussianBlur stdDeviation="80" result="effect1_foregroundBlur_1_1"/>
    </filter>
    <filter id="glowCyan" x="360" y="90" width="480" height="400" filterUnits="userSpaceOnUse" color-interpolation-filters="sRGB">
      <feFlood flood-opacity="0" result="BackgroundImageFix"/>
      <feBlend mode="normal" in="SourceGraphic" in2="BackgroundImageFix" result="shape"/>
      <feGaussianBlur stdDeviation="60" result="effect1_foregroundBlur_1_1"/>
    </filter>
  </defs>
</svg>
